<mxfile host="65bd71144e">
    <diagram id="R2lEEEUBdFMjLlhIrx00" name="Page-1">
        <mxGraphModel dx="1551" dy="532" grid="1" gridSize="10" guides="1" tooltips="1" connect="1" arrows="1" fold="1" page="1" pageScale="1" pageWidth="850" pageHeight="1100" math="0" shadow="0" extFonts="Permanent Marker^https://fonts.googleapis.com/css?family=Permanent+Marker">
            <root>
                <mxCell id="0"/>
                <mxCell id="1" parent="0"/>
                <mxCell id="3" value="Doctor" style="whiteSpace=wrap;html=1;align=center;" vertex="1" parent="1">
                    <mxGeometry x="-280" y="230" width="100" height="40" as="geometry"/>
                </mxCell>
                <mxCell id="6" value="Name" style="ellipse;whiteSpace=wrap;html=1;align=center;" vertex="1" parent="1">
                    <mxGeometry x="-280" y="140" width="100" height="40" as="geometry"/>
                </mxCell>
                <mxCell id="7" value="Specialization" style="ellipse;whiteSpace=wrap;html=1;align=center;" vertex="1" parent="1">
                    <mxGeometry x="-150" y="160" width="100" height="40" as="geometry"/>
                </mxCell>
                <mxCell id="8" value="" style="endArrow=none;html=1;rounded=0;entryX=0.5;entryY=0;entryDx=0;entryDy=0;exitX=0.5;exitY=1;exitDx=0;exitDy=0;" edge="1" parent="1" source="6" target="3">
                    <mxGeometry relative="1" as="geometry">
                        <mxPoint x="-279" y="200" as="sourcePoint"/>
                        <mxPoint x="-119" y="200" as="targetPoint"/>
                    </mxGeometry>
                </mxCell>
                <mxCell id="10" value="" style="endArrow=none;html=1;rounded=0;entryX=1;entryY=0;entryDx=0;entryDy=0;exitX=0.5;exitY=1;exitDx=0;exitDy=0;" edge="1" parent="1" source="7" target="3">
                    <mxGeometry relative="1" as="geometry">
                        <mxPoint x="-251" y="189" as="sourcePoint"/>
                        <mxPoint x="-202" y="230" as="targetPoint"/>
                    </mxGeometry>
                </mxCell>
                <mxCell id="16" value="Medicines" style="whiteSpace=wrap;html=1;align=center;" vertex="1" parent="1">
                    <mxGeometry x="201" y="230" width="100" height="40" as="geometry"/>
                </mxCell>
                <mxCell id="17" value="Name" style="ellipse;whiteSpace=wrap;html=1;align=center;" vertex="1" parent="1">
                    <mxGeometry x="120" y="140" width="100" height="40" as="geometry"/>
                </mxCell>
                <mxCell id="18" value="ExpiryDate" style="ellipse;whiteSpace=wrap;html=1;align=center;" vertex="1" parent="1">
                    <mxGeometry x="360" y="170" width="100" height="40" as="geometry"/>
                </mxCell>
                <mxCell id="19" value="" style="endArrow=none;html=1;rounded=0;entryX=0.25;entryY=0;entryDx=0;entryDy=0;exitX=0.5;exitY=1;exitDx=0;exitDy=0;" edge="1" parent="1" source="17" target="16">
                    <mxGeometry relative="1" as="geometry">
                        <mxPoint x="181" y="200" as="sourcePoint"/>
                        <mxPoint x="341" y="200" as="targetPoint"/>
                    </mxGeometry>
                </mxCell>
                <mxCell id="20" value="" style="endArrow=none;html=1;rounded=0;entryX=1;entryY=0.25;entryDx=0;entryDy=0;exitX=0.5;exitY=1;exitDx=0;exitDy=0;" edge="1" parent="1" source="18" target="16">
                    <mxGeometry relative="1" as="geometry">
                        <mxPoint x="209" y="189" as="sourcePoint"/>
                        <mxPoint x="258" y="230" as="targetPoint"/>
                    </mxGeometry>
                </mxCell>
                <mxCell id="21" value="" style="endArrow=none;html=1;rounded=0;exitX=0.75;exitY=0;exitDx=0;exitDy=0;entryX=0.5;entryY=1;entryDx=0;entryDy=0;" edge="1" parent="1" source="16" target="22">
                    <mxGeometry relative="1" as="geometry">
                        <mxPoint x="241" y="290" as="sourcePoint"/>
                        <mxPoint x="241" y="170" as="targetPoint"/>
                    </mxGeometry>
                </mxCell>
                <mxCell id="22" value="Type" style="ellipse;whiteSpace=wrap;html=1;align=center;" vertex="1" parent="1">
                    <mxGeometry x="250" y="140" width="100" height="40" as="geometry"/>
                </mxCell>
                <mxCell id="24" value="" style="endArrow=none;html=1;rounded=0;exitX=0;exitY=0;exitDx=0;exitDy=0;entryX=0.71;entryY=0.975;entryDx=0;entryDy=0;entryPerimeter=0;" edge="1" parent="1" source="3" target="25">
                    <mxGeometry relative="1" as="geometry">
                        <mxPoint x="-120" y="210" as="sourcePoint"/>
                        <mxPoint x="-340" y="200" as="targetPoint"/>
                    </mxGeometry>
                </mxCell>
                <mxCell id="25" value="DoctorID" style="ellipse;whiteSpace=wrap;html=1;align=center;" vertex="1" parent="1">
                    <mxGeometry x="-410" y="160" width="100" height="40" as="geometry"/>
                </mxCell>
                <mxCell id="26" value="MedicineID" style="ellipse;whiteSpace=wrap;html=1;align=center;" vertex="1" parent="1">
                    <mxGeometry x="20" y="170" width="100" height="40" as="geometry"/>
                </mxCell>
                <mxCell id="27" value="" style="endArrow=none;html=1;rounded=0;entryX=0;entryY=0.25;entryDx=0;entryDy=0;exitX=0.5;exitY=1;exitDx=0;exitDy=0;" edge="1" parent="1" source="26" target="16">
                    <mxGeometry relative="1" as="geometry">
                        <mxPoint x="111" y="240" as="sourcePoint"/>
                        <mxPoint x="156" y="270" as="targetPoint"/>
                    </mxGeometry>
                </mxCell>
                <mxCell id="35" value="Patient" style="whiteSpace=wrap;html=1;align=center;" vertex="1" parent="1">
                    <mxGeometry x="680" y="230" width="100" height="40" as="geometry"/>
                </mxCell>
                <mxCell id="36" value="Name" style="ellipse;whiteSpace=wrap;html=1;align=center;" vertex="1" parent="1">
                    <mxGeometry x="680" y="140" width="100" height="40" as="geometry"/>
                </mxCell>
                <mxCell id="37" value="Specialization" style="ellipse;whiteSpace=wrap;html=1;align=center;" vertex="1" parent="1">
                    <mxGeometry x="810" y="160" width="100" height="40" as="geometry"/>
                </mxCell>
                <mxCell id="38" value="" style="endArrow=none;html=1;rounded=0;entryX=0.5;entryY=0;entryDx=0;entryDy=0;exitX=0.5;exitY=1;exitDx=0;exitDy=0;" edge="1" parent="1" source="36" target="35">
                    <mxGeometry relative="1" as="geometry">
                        <mxPoint x="681" y="200" as="sourcePoint"/>
                        <mxPoint x="841" y="200" as="targetPoint"/>
                    </mxGeometry>
                </mxCell>
                <mxCell id="39" value="" style="endArrow=none;html=1;rounded=0;entryX=1;entryY=0;entryDx=0;entryDy=0;exitX=0.5;exitY=1;exitDx=0;exitDy=0;" edge="1" parent="1" source="37" target="35">
                    <mxGeometry relative="1" as="geometry">
                        <mxPoint x="709" y="189" as="sourcePoint"/>
                        <mxPoint x="758" y="230" as="targetPoint"/>
                    </mxGeometry>
                </mxCell>
                <mxCell id="40" value="" style="endArrow=none;html=1;rounded=0;exitX=0;exitY=0;exitDx=0;exitDy=0;entryX=0.71;entryY=0.975;entryDx=0;entryDy=0;entryPerimeter=0;" edge="1" parent="1" source="35" target="41">
                    <mxGeometry relative="1" as="geometry">
                        <mxPoint x="840" y="210" as="sourcePoint"/>
                        <mxPoint x="620" y="200" as="targetPoint"/>
                    </mxGeometry>
                </mxCell>
                <mxCell id="41" value="PatientID" style="ellipse;whiteSpace=wrap;html=1;align=center;" vertex="1" parent="1">
                    <mxGeometry x="550" y="160" width="100" height="40" as="geometry"/>
                </mxCell>
                <mxCell id="42" value="" style="endArrow=none;html=1;rounded=0;entryX=0;entryY=0.5;entryDx=0;entryDy=0;" edge="1" parent="1" target="44">
                    <mxGeometry relative="1" as="geometry">
                        <mxPoint x="-180" y="250" as="sourcePoint"/>
                        <mxPoint x="-60" y="250" as="targetPoint"/>
                        <Array as="points">
                            <mxPoint x="-100" y="250"/>
                        </Array>
                    </mxGeometry>
                </mxCell>
                <mxCell id="44" value="Prescribes" style="shape=rhombus;perimeter=rhombusPerimeter;whiteSpace=wrap;html=1;align=center;" vertex="1" parent="1">
                    <mxGeometry x="-50" y="220" width="90" height="60" as="geometry"/>
                </mxCell>
                <mxCell id="45" value="" style="endArrow=none;html=1;rounded=0;exitX=1;exitY=0.5;exitDx=0;exitDy=0;entryX=0;entryY=0.5;entryDx=0;entryDy=0;" edge="1" parent="1" source="44" target="16">
                    <mxGeometry relative="1" as="geometry">
                        <mxPoint x="-60" y="290" as="sourcePoint"/>
                        <mxPoint x="181" y="250" as="targetPoint"/>
                    </mxGeometry>
                </mxCell>
                <mxCell id="46" value="" style="endArrow=none;html=1;rounded=0;exitX=1;exitY=0.5;exitDx=0;exitDy=0;" edge="1" parent="1" source="16">
                    <mxGeometry relative="1" as="geometry">
                        <mxPoint x="340" y="310" as="sourcePoint"/>
                        <mxPoint x="430" y="250" as="targetPoint"/>
                    </mxGeometry>
                </mxCell>
                <mxCell id="47" value="to" style="shape=rhombus;perimeter=rhombusPerimeter;whiteSpace=wrap;html=1;align=center;" vertex="1" parent="1">
                    <mxGeometry x="425" y="220" width="90" height="60" as="geometry"/>
                </mxCell>
                <mxCell id="48" value="" style="endArrow=none;html=1;rounded=0;exitX=1;exitY=0.5;exitDx=0;exitDy=0;entryX=0;entryY=0.5;entryDx=0;entryDy=0;" edge="1" parent="1" source="47" target="35">
                    <mxGeometry relative="1" as="geometry">
                        <mxPoint x="311" y="260" as="sourcePoint"/>
                        <mxPoint x="440" y="260" as="targetPoint"/>
                    </mxGeometry>
                </mxCell>
            </root>
        </mxGraphModel>
    </diagram>
</mxfile>